<svg width="86" height="72" viewBox="0 0 86 72" fill="none" xmlns="http://www.w3.org/2000/svg">
<path d="M67.5452 10.1011V3.72418L78.6743 14.8838L67.5452 26.0434V19.5071C59.5958 19.5071 54.0313 22.0578 50.0566 27.6376C51.6464 19.6665 56.4161 11.6953 67.5452 10.1011Z" fill="#0B996C"/>
<path d="M63.5813 25.2855H22.2881C19.4492 25.2855 17.1523 27.6083 17.1523 30.4472L17.1265 61.4171C17.1265 64.256 19.4492 66.5787 22.2881 66.5787H63.5813C66.4202 66.5787 68.7429 64.256 68.7429 61.4171V30.4472C68.7429 27.6083 66.4202 25.2855 63.5813 25.2855ZM63.5813 35.6088L42.9347 48.5129L22.2881 35.6088V30.4472L42.9347 43.3513L63.5813 30.4472V35.6088Z" fill="#185F00"/>
</svg>
